[center]
[img][img]http://img192.imageshack.us/img192/7370/hmgd51vg.jpg[/img][/img]

Complete name                    : HORRID HENRY 2011 PAL DVDR Legend-Rg\VIDEO_TS\VTS_10_1.VOB
Format                           : MPEG-PS
File size                        : 1 024 MiB
Duration                         : 24mn 36s
Overall bit rate mode            : Variable
Overall bit rate                 : 5 816 Kbps
Writing library                  : encoded by TMPGEnc (ver. 2.524.63.181)

Video
ID                               : 224 (0xE0)
Format                           : MPEG Video
Format version                   : Version 2
Format profile                   : Main@Main
Format settings, BVOP            : Yes
Format settings, Matrix          : Custom
Duration                         : 24mn 36s
Bit rate mode                    : Variable
Bit rate                         : 4 804 Kbps
Width                            : 720 pixels
Height                           : 576 pixels
Display aspect ratio             : 16:9
Frame rate                       : 25.000 fps
Standard                         : PAL
Color space                      : YUV
Chroma subsampling               : 4:2:0
Bit depth                        : 8 bits
Compression mode                 : Lossy
Bits/(Pixel*Frame)               : 0.463
Stream size                      : 846 MiB (83%)
Writing library                  : TMPGEnc 2.524.63.181

Audio #1
ID                               : 189 (0xBD)-128 (0x80)
Format                           : AC-3
Format/Info                      : Audio Coding 3
Mode extension                   : CM (complete main)
Muxing mode                      : DVD-Video
Duration                         : 24mn 36s
Bit rate mode                    : Constant
Bit rate                         : 448 Kbps
Channel(s)                       : 6 channels
Channel positions                : Front: L C R, Side: L R, LFE
Sampling rate                    : 48.0 KHz
Bit depth                        : 16 bits
Compression mode                 : Lossy
Delay relative to video          : 6ms
Stream size                      : 78.9 MiB (8%)

Audio #2
ID                               : 189 (0xBD)-129 (0x81)
Format                           : AC-3
Format/Info                      : Audio Coding 3
Mode extension                   : CM (complete main)
Muxing mode                      : DVD-Video
Duration                         : 24mn 36s
Bit rate mode                    : Constant
Bit rate                         : 224 Kbps
Channel(s)                       : 2 channels
Channel positions                : Front: L R
Sampling rate                    : 48.0 KHz
Bit depth                        : 16 bits
Compression mode                 : Lossy
Delay relative to video          : 6ms
Stream size                      : 39.4 MiB (4%)

Audio #3
ID                               : 189 (0xBD)-130 (0x82)
Format                           : AC-3
Format/Info                      : Audio Coding 3
Mode extension                   : CM (complete main)
Muxing mode                      : DVD-Video
Duration                         : 24mn 36s
Bit rate mode                    : Constant
Bit rate                         : 224 Kbps
Channel(s)                       : 2 channels
Channel positions                : Front: L R
Sampling rate                    : 48.0 KHz
Bit depth                        : 16 bits
Compression mode                 : Lossy
Delay relative to video          : 6ms
Stream size                      : 39.4 MiB (4%)

Text
ID                               : 189 (0xBD)-32 (0x20)
Format                           : RLE
Format/Info                      : Run-length encoding
Muxing mode                      : DVD-Video

Menu - Y

Info taken from 1st Vob. Great rip, all here, menu, extras, trailers.

Screens - 

[img]http://img412.imageshack.us/img412/4769/ypzvw.jpg[/img]
[img]http://img855.imageshack.us/img855/3476/jbs1h.jpg[/img]
[img]http://img28.imageshack.us/img28/4332/gjukf.jpg[/img]
[img]http://img827.imageshack.us/img827/7038/enawn.jpg[/img][/center]